<svg width="171" height="52" fill="none" xmlns="http://www.w3.org/2000/svg"><g clip-path="url(#clip0)" fill="#000"><path d="M21.209 47.842V52h2.407v-6.57l-2.407 2.412z"/><path d="M51.894 52L2.408 5.75V52H0V0l49.486 46.25V0h2.408v52z"/><path d="M6.199 25.461H2.356L30.686 52h3.79L6.2 25.461zM6.147 15.554h-3.79L41.238 52h3.842L6.147 15.554zM7.07 34.547v17.402h2.407V32.134L7.07 34.547zM14.139 41.169V52h2.408V38.756l-2.408 2.413zM44.773 17.402V0h-2.356v19.814l2.356-2.412zM37.704 10.729V0h-2.408v13.141l2.408-2.412zM30.686 4.158V0h-2.408v6.57l2.408-2.412zM49.538 26.539L21.26 0h-3.791l28.278 26.539h3.79zM6.865 0l38.882 36.446h3.79L10.657 0H6.865zM72.386 41.066c-.308-.719-.871-1.078-1.845-1.078-1.28 0-2.049.77-2.049 2.053 0 1.284.769 2.054 2.05 2.054.87 0 1.587-.41 1.844-1.027H70.95v-1.283h3.125v3.49h-1.23l-.102-.718c-.615.616-1.383.872-2.356.872-2.152 0-3.74-1.334-3.74-3.336s1.486-3.337 3.79-3.337c1.999 0 3.382.975 3.587 2.361h-1.64v-.05zM89.496 38.859h3.893c1.64 0 2.46.513 2.46 1.694 0 .77-.41 1.335-1.077 1.591.666.257.769.616.82 1.386.051.77.051 1.335.359 1.694h-1.793a.868.868 0 01-.154-.513v-.462c0-1.078-.154-1.438-1.127-1.438h-1.844v2.362h-1.588v-6.314h.05zm1.588 2.72h1.793c.87 0 1.28-.154 1.28-.77 0-.615-.46-.667-1.383-.667h-1.741v1.438h.05zM119.003 42.041c0 2.002-1.485 3.337-3.791 3.337-2.356 0-3.79-1.335-3.79-3.337 0-2.002 1.485-3.336 3.79-3.336 2.306 0 3.791 1.334 3.791 3.337zm-5.891 0c0 1.284.768 2.054 2.049 2.054s2.049-.77 2.049-2.053c0-1.284-.768-2.054-2.049-2.054-1.229 0-2.049.77-2.049 2.053zM135.96 38.859v3.44c0 1.231.461 1.796 1.639 1.796 1.281 0 1.691-.719 1.691-1.745v-3.491h1.588v3.593c0 1.95-1.127 2.926-3.279 2.926-2.151 0-3.278-1.027-3.278-2.977v-3.594h1.639v.052zM156.297 38.859h3.74c1.486 0 2.357.821 2.357 2.156 0 1.334-.871 2.207-2.357 2.207h-2.151v2.002h-1.589V38.86zm1.589 3.08h1.485c.974 0 1.435-.154 1.435-.873s-.41-.873-1.332-.873h-1.588v1.746zM102.354 8.983v7.34h11.629v2.413h-11.629v7.803h14.805l-2.151 2.413H97.744V6.57h19.466l-1.895 2.412h-12.961zM135.909 17.504l9.477 11.448h-5.43l-6.762-8.162-6.763 8.162h-5.43l9.477-11.448-8.964-10.882h5.43l6.25 7.597 6.301-7.648h5.43l-9.016 10.933zM168.9 8.983h-6.506v19.969h-4.611V8.983h-8.606V6.571H171l-2.1 2.412zM88.42 6.57v18.172L73.257 6.571h-6.558v22.38h3.535V10.78l15.112 18.172h6.558V6.57H88.42z"/></g><defs><clipPath id="clip0"><path fill="#fff" d="M0 0h171v52H0z"/></clipPath></defs></svg>